<svg width="611.674" height="512.29" viewBox="0 0 161.839 135.543" xml:space="preserve" xmlns="http://www.w3.org/2000/svg"><defs><clipPath clipPathUnits="userSpaceOnUse" id="a"><path d="M0 252h252V0H0z" transform="translate(-201.164 -166.153)"/></clipPath></defs><path style="fill:#4b4efc;fill-opacity:1" transform="matrix(.56822 0 0 .56822 -65.064 -91.153)" d="M365.6 398.96V320.8h-97.68z"/><path d="M193.849-658.283c0-7.17-.847-13.018-3.043-17.992a22.754 22.754 0 0 0-10.544-11.073c-8.996-4.498-19.486-4.008-32.716-4.008H28.484c-13.23 0-23.76-.49-32.742 4.008-4.498 2.25-8.308 6.112-10.517 11.086-2.196 4.961-3.043 10.809-3.043 17.979v66.146c0 7.17.847 13.017 3.043 17.991 2.209 4.961 6.032 8.837 10.517 11.073 8.996 4.498 19.513 4.008 32.742 4.008h119.062c13.23 0 23.734.49 32.716-4.008a22.754 22.754 0 0 0 10.53-11.086c2.21-4.96 3.057-10.808 3.057-17.978zm-26.459-18.918v103.981c-4.934.662-11.51.926-19.844.926H28.484c-8.334 0-14.896-.264-19.844-.926V-677.2c4.948-.661 11.51-.926 19.844-.926h119.062c8.335 0 14.91.265 19.844.926z" style="line-height:normal;font-variant-ligatures:normal;font-variant-position:normal;font-variant-caps:normal;font-variant-numeric:normal;font-variant-alternates:normal;font-feature-settings:normal;text-indent:0;text-align:start;text-decoration-line:none;text-decoration-style:solid;text-decoration-color:#000;text-transform:none;text-orientation:mixed;shape-padding:0;isolation:auto;mix-blend-mode:normal;fill:#4b4efc;fill-opacity:1;stroke-width:13.2292;marker:none" color="#000" font-weight="400" font-family="sans-serif" overflow="visible" fill="gray" transform="matrix(.7646 0 0 .7646 13.624 528.617)"/><path style="fill:#fff;fill-opacity:1;stroke-width:15.2222" d="m52.505 217.089-6.276-.304-.972-.046V137.29l2.705-.23c3.532-.298 111.98-.298 115.511 0l2.706.23v79.381l-1.857.228c-2.65.326-105.443.5-111.817.19z" transform="translate(-24.775 -126.389)"/><g><g style="fill:#4b4efc;fill-opacity:1"><path d="M0 0c6.632-12.101 10.406-25.988 10.406-40.76 0-31.345-16.987-58.711-42.246-73.438l25.95 75.03C-1.043-27.047.571-17.355.571-8.737.571-5.609.365-2.706 0 0m-62.846-.925c5.115.269 9.724.807 9.724.807 4.578.542 4.038 7.27-.542 7.002 0 0-13.762-1.08-22.646-1.08-8.348 0-22.376 1.08-22.376 1.08-4.582.268-5.119-6.731-.539-7.002 0 0 4.334-.538 8.912-.807l13.236-36.269-18.596-55.763-30.938 92.032c5.119.269 9.723.807 9.723.807 4.575.542 4.035 7.27-.543 7.002 0 0-13.759-1.08-22.644-1.08-1.594 0-3.473.039-5.468.103 15.192 23.064 41.304 38.295 70.988 38.295 22.118 0 42.258-8.457 57.373-22.307-.366.022-.723.068-1.1.068-8.346 0-14.268-7.27-14.268-15.079 0-7.002 4.04-12.926 8.346-19.927 3.231-5.659 7.005-12.928 7.005-23.432 0-7.271-2.797-15.71-6.465-27.466l-8.477-28.315zm-11.709-124.804a84.934 84.934 0 0 0-24.003 3.462l25.495 74.075 26.114-71.549c.172-.42.383-.807.608-1.171a84.783 84.783 0 0 0-28.214-4.817m-84.962 84.969a84.622 84.622 0 0 0 7.357 34.577l40.529-111.042c-28.345 13.77-47.886 42.835-47.886 76.465m84.962 94.497c-52.107 0-94.499-42.391-94.499-94.497 0-52.108 42.392-94.504 94.499-94.504 52.106 0 94.5 42.396 94.5 94.504 0 52.106-42.394 94.497-94.5 94.497" style="fill:#4b4efc;fill-opacity:1;fill-rule:nonzero;stroke:none" transform="matrix(.38152 0 0 -.38152 109.363 35.035)" clip-path="url(#a)"/></g><path style="fill:#fff;fill-opacity:1;stroke-width:57.5326" d="M292.654 352.302c-19.23-12.658-33.925-29.43-43.65-49.817-9.084-19.045-11.488-29.834-11.569-51.923-.07-19.264 1.506-29.161 6.782-42.593l2.498-6.36 27.887 76.593c15.339 42.127 28.145 77.346 28.46 78.265.937 2.738-1.253 1.861-10.408-4.165zM306.688 259.571c-11.76-35.08-21.575-64.536-21.813-65.46-.3-1.169 1.452-1.679 5.767-1.679 7.707 0 11.37-1.866 11.37-5.793 0-5.455-1.71-5.828-23.651-5.161l-20.881.634 4.465-6.217c10.42-14.51 31.278-30.806 48.538-37.922 27.569-11.367 59.698-12.764 86.172-3.748 12.592 4.288 26.334 11.475 35.349 18.486l7.717 6.002-4.73.888c-6.122 1.148-13.523 8.554-15.357 15.366-2.073 7.698-.468 14.55 6.175 26.356 12.604 22.398 16.148 33.804 14.66 47.175-1.018 9.135-19.764 72.533-21.05 71.189-1.01-1.054-42.573-124.142-42.573-126.077 0-.648 2.745-1.178 6.101-1.178s7.265-.623 8.686-1.383c2.804-1.5 3.528-7.231 1.103-8.73-1.918-1.185-71.312-1.17-73.231.016-2.405 1.486-1.663 7.22 1.127 8.714 1.422.76 5.266 1.383 8.543 1.383 4.437 0 6.191.597 6.87 2.339.501 1.286 4.827 13.008 9.612 26.049l8.7 23.71-13.144 39.41-13.143 39.411z" transform="matrix(.26458 0 0 .26458 -13.973 -15.546)"/><path style="fill:#fff;fill-opacity:1;stroke-width:57.5326" d="M334.916 369.497c-5.055-1.045-9.387-2.096-9.627-2.336-.683-.683 34.636-102.567 35.557-102.567.588 0 31.455 83.125 37.006 99.659.272.81-3.778 2.51-9.26 3.888-12.878 3.238-41.121 3.951-53.676 1.356z" transform="matrix(.26458 0 0 .26458 -13.973 -15.546)"/><path style="fill:#fff;fill-opacity:1;stroke-width:57.5326" d="M306.353 258.71c-11.943-35.362-21.714-64.74-21.714-65.286 0-.546 2.892-.992 6.426-.992 7.775 0 11.373-2.264 10.74-6.757l-.462-3.266-21.94-.668-21.939-.668 6.69-8.034c18.963-22.774 43.723-37.508 71.934-42.804 14.499-2.723 39.413-2.049 52.785 1.427 11.966 3.11 31.859 12.647 42.16 20.212l8.586 6.303-4.994 1.704c-6.297 2.148-13.068 9.408-14.874 15.947-2.013 7.293.178 15.258 7.988 29.043 10.6 18.708 12.316 23.905 12.436 37.673.098 11.264-.528 14.126-9.86 45.071-5.482 18.174-10.426 32.584-10.988 32.022-1.02-1.02-42.481-124.138-42.481-126.146 0-.583 2.366-1.06 5.258-1.06 8.569 0 12.366-2.03 11.869-6.347l-.423-3.675h-37.417c-36.413 0-37.427.072-37.76 2.673-.583 4.568 1.757 6.303 9.678 7.176l7.644.842 9.437 25.99 9.436 25.99-8.443 25.458c-4.643 14.003-10.606 31.536-13.25 38.962l-4.809 13.503zM422.281 352.95c0-.74 9.22-27.989 20.487-60.553 23.196-67.034 23.541-68.22 24.593-84.396.867-13.346 1.215-13.147 6.912 3.96 14.236 42.741 3.062 90.673-28.606 122.71-10.79 10.915-23.386 20.76-23.386 18.278z" transform="matrix(.26458 0 0 .26458 -13.973 -15.546)"/></g></svg>