<svg
   width="161.83865mm"
   height="135.54337mm"
   viewBox="0 0 161.83865 135.54337"
   version="1.1"
   id="svg1"
   xml:space="preserve"
   inkscape:version="1.3.1 (9b9bdc1480, 2023-11-25, custom)"
   sodipodi:docname="temp.svg"
   xmlns:inkscape="http://www.inkscape.org/namespaces/inkscape"
   xmlns:sodipodi="http://sodipodi.sourceforge.net/DTD/sodipodi-0.dtd"
   xmlns="http://www.w3.org/2000/svg"
   xmlns:svg="http://www.w3.org/2000/svg"><sodipodi:namedview
     id="namedview1"
     pagecolor="#ffffff"
     bordercolor="#666666"
     borderopacity="1.0"
     inkscape:showpageshadow="2"
     inkscape:pageopacity="0.0"
     inkscape:pagecheckerboard="0"
     inkscape:deskcolor="#d1d1d1"
     inkscape:document-units="mm"
     inkscape:zoom="0.7483165"
     inkscape:cx="396.89089"
     inkscape:cy="454.35321"
     inkscape:window-width="1920"
     inkscape:window-height="1016"
     inkscape:window-x="0"
     inkscape:window-y="27"
     inkscape:window-maximized="1"
     inkscape:current-layer="layer1" /><defs
     id="defs1"><clipPath
       clipPathUnits="userSpaceOnUse"
       id="clipPath3"><path
         d="M 0,252 H 252 V 0 H 0 Z"
         transform="translate(-201.16411,-166.1533)"
         id="path3" /></clipPath><clipPath
       id="clipPath288-8-1-3"><path
         d="M 0,1000 H 1000 V 0 H 0 Z"
         id="path3-8-7" /></clipPath><clipPath
       id="clipPath296-2-7-5"><path
         d="M 0,1000 H 1000 V 0 H 0 Z"
         id="path4-9-9" /></clipPath></defs><g
     inkscape:label="Capa 1"
     inkscape:groupmode="layer"
     id="layer1"><g
       id="g9"
       transform="translate(-24.774973,-127.80419)"><polygon
         style="fill:#4b4efc;fill-opacity:1"
         points="365.6,398.96 365.6,320.8 267.92,320.8 "
         id="polygon1-9"
         transform="matrix(0.56821814,0,0,0.56821814,-40.28889,36.651254)" /><g
         id="g8"
         transform="translate(0,1.4153784)"><g
           id="g3"
           transform="matrix(0.76459208,0,0,0.76459208,38.39856,655.00623)"><path
             d="m 193.84855,-658.28326 c 0,-7.17021 -0.84666,-13.0175 -3.0427,-17.99167 a 22.754167,22.754167 0 0 0 -10.54365,-11.07281 c -8.99583,-4.49792 -19.48656,-4.00844 -32.71573,-4.00844 H 28.483969 c -13.22917,0 -23.7595902,-0.48948 -32.7421802,4.00844 -4.49792,2.24896 -8.3079198,6.11187 -10.5171898,11.08604 -2.19604,4.96094 -3.04271,10.80823 -3.04271,17.97844 v 66.14584 c 0,7.17021 0.84667,13.0175 3.04271,17.99167 2.20927,4.96093 6.0324998,8.83708 10.5171898,11.07281 8.99582,4.49792 19.5130102,4.00844 32.7421802,4.00844 H 147.54647 c 13.22917,0 23.73313,0.48948 32.71573,-4.00844 a 22.754167,22.754167 0 0 0 10.53042,-11.08604 c 2.20927,-4.96094 3.05593,-10.80823 3.05593,-17.97844 z m -26.45833,-18.91771 v 103.98126 c -4.93448,0.66146 -11.50937,0.92604 -19.84375,0.92604 H 28.483969 c -8.33438,0 -14.89604,-0.26458 -19.8437502,-0.92604 v -103.98126 c 4.9477102,-0.66146 11.5093702,-0.92604 19.8437502,-0.92604 H 147.54647 c 8.33438,0 14.90927,0.26458 19.84375,0.92604 z"
             style="line-height:normal;font-variant-ligatures:normal;font-variant-position:normal;font-variant-caps:normal;font-variant-numeric:normal;font-variant-alternates:normal;font-feature-settings:normal;text-indent:0;text-align:start;text-decoration-line:none;text-decoration-style:solid;text-decoration-color:#000000;text-transform:none;text-orientation:mixed;shape-padding:0;isolation:auto;mix-blend-mode:normal;fill:#4b4efc;fill-opacity:1;stroke-width:13.2292;marker:none"
             color="#000000"
             font-weight="400"
             font-family="sans-serif"
             white-space="normal"
             overflow="visible"
             fill="#808080"
             id="path1-4" /></g><path
           style="fill:#ffffff;fill-opacity:1;stroke-width:15.2222"
           d="m 52.505355,217.089 c -2.916962,-0.14213 -5.741114,-0.27896 -6.275892,-0.30407 l -0.97232,-0.0456 v -39.7249 -39.72491 l 2.705131,-0.22866 c 3.531399,-0.29851 111.979766,-0.29851 115.511166,0 l 2.70513,0.22866 v 39.69079 39.69077 l -1.85625,0.22828 c -2.64979,0.32587 -105.443546,0.50025 -111.816965,0.18969 z"
           id="path8" /></g><g
         id="g7"
         transform="translate(10.802467,112.25855)"><g
           id="group-MC1"
           transform="matrix(0.28613843,0,0,0.28613843,46.588002,17.828124)"
           style="fill:#4b4efc;fill-opacity:1"><path
             id="path2"
             d="m 0,0 c 6.632,-12.101 10.406,-25.988 10.406,-40.76 0,-31.345 -16.987,-58.711 -42.246,-73.438 l 25.95,75.03 c 4.847,12.121 6.461,21.813 6.461,30.431 C 0.571,-5.609 0.365,-2.706 0,0 m -62.846,-0.925 c 5.115,0.269 9.724,0.807 9.724,0.807 4.578,0.542 4.038,7.27 -0.542,7.002 0,0 -13.762,-1.08 -22.646,-1.08 -8.348,0 -22.376,1.08 -22.376,1.08 -4.582,0.268 -5.119,-6.731 -0.539,-7.002 0,0 4.334,-0.538 8.912,-0.807 l 13.236,-36.269 -18.596,-55.763 -30.938,92.032 c 5.119,0.269 9.723,0.807 9.723,0.807 4.575,0.542 4.035,7.27 -0.543,7.002 0,0 -13.759,-1.08 -22.644,-1.08 -1.594,0 -3.473,0.039 -5.468,0.103 15.192,23.064 41.304,38.295 70.988,38.295 22.118,0 42.258,-8.457 57.373,-22.307 -0.366,0.022 -0.723,0.068 -1.1,0.068 -8.346,0 -14.268,-7.27 -14.268,-15.079 0,-7.002 4.04,-12.926 8.346,-19.927 3.231,-5.659 7.005,-12.928 7.005,-23.432 0,-7.271 -2.797,-15.71 -6.465,-27.466 l -8.477,-28.315 z m -11.709,-124.804 c -8.34,0 -16.389,1.223 -24.003,3.462 l 25.495,74.075 26.114,-71.549 c 0.172,-0.42 0.383,-0.807 0.608,-1.171 -8.831,-3.109 -18.32,-4.817 -28.214,-4.817 m -84.962,84.969 c 0,12.318 2.642,24.011 7.357,34.577 l 40.529,-111.042 c -28.345,13.77 -47.886,42.835 -47.886,76.465 m 84.962,94.497 c -52.107,0 -94.499,-42.391 -94.499,-94.497 0,-52.108 42.392,-94.504 94.499,-94.504 52.106,0 94.5,42.396 94.5,94.504 0,52.106 -42.394,94.497 -94.5,94.497"
             style="fill:#4b4efc;fill-opacity:1;fill-rule:nonzero;stroke:none"
             transform="matrix(1.3333333,0,0,-1.3333333,268.2188,114.46227)"
             clip-path="url(#clipPath3)" /></g><path
           style="fill:#ffffff;fill-opacity:1;stroke-width:57.5326"
           d="m 292.65419,352.30224 c -19.22952,-12.6579 -33.92563,-29.43053 -43.65005,-49.81768 -9.08416,-19.04487 -11.48796,-29.83342 -11.56878,-51.92213 -0.0705,-19.26455 1.50524,-29.16186 6.78118,-42.59335 l 2.49853,-6.36077 27.8874,76.59404 c 15.33808,42.12673 28.14473,77.34574 28.45923,78.26447 0.93727,2.73793 -1.25266,1.86163 -10.40751,-4.16458 z"
           id="path1"
           transform="scale(0.26458333)" /><path
           style="fill:#ffffff;fill-opacity:1;stroke-width:57.5326"
           d="m 306.68841,259.57103 c -11.75973,-35.07912 -21.57575,-64.53597 -21.81339,-65.45966 -0.30078,-1.16909 1.45174,-1.67942 5.76727,-1.67942 7.70666,0 11.36896,-1.86619 11.36896,-5.79325 0,-5.45488 -1.70977,-5.828 -23.65034,-5.16115 l -20.88109,0.63465 4.46497,-6.21736 c 10.42062,-14.51045 31.27806,-30.806 48.53857,-37.92231 27.56819,-11.36605 59.69751,-12.76332 86.17141,-3.74752 12.59179,4.28819 26.33391,11.47479 35.34873,18.486 l 7.71778,6.00246 -4.73074,0.88749 c -6.12106,1.14832 -13.52287,8.55443 -15.35702,15.36591 -2.07294,7.69831 -0.4672,14.55106 6.1758,26.35626 12.60357,22.39768 16.14782,33.80364 14.65907,47.17521 -1.01707,9.1351 -19.76301,72.5324 -21.04975,71.18864 -1.00954,-1.05429 -42.57275,-124.142 -42.57275,-126.07745 0,-0.64767 2.74561,-1.17758 6.10135,-1.17758 3.35575,0 7.26452,-0.62251 8.68617,-1.38335 2.8035,-1.5004 3.52758,-7.23059 1.10301,-8.72906 -1.91842,-1.18565 -71.31197,-1.17142 -73.23166,0.015 -2.4046,1.48613 -1.66272,7.22088 1.1273,8.71405 1.42165,0.76084 5.26608,1.38335 8.54319,1.38335 4.43657,0 6.19114,0.59728 6.86974,2.33858 0.50125,1.28622 4.82655,13.00832 9.61179,26.04911 l 8.70043,23.71053 -13.14373,39.41054 -13.14374,39.41055 z"
           id="path4"
           transform="scale(0.26458333)" /><path
           style="fill:#ffffff;fill-opacity:1;stroke-width:57.5326"
           d="m 334.91572,369.49709 c -5.05451,-1.04479 -9.38633,-2.09594 -9.62628,-2.33588 -0.68344,-0.68345 34.63569,-102.56728 35.55606,-102.56728 0.58864,0 31.45559,83.12457 37.00676,99.65904 0.27175,0.80943 -3.77777,2.50976 -9.25945,3.8879 -12.8787,3.23781 -41.122,3.95141 -53.67709,1.35622 z"
           id="path5"
           transform="scale(0.26458333)" /><path
           style="fill:#ffffff;fill-opacity:1;stroke-width:57.5326"
           d="m 306.3525,258.70916 c -11.94247,-35.36144 -21.71358,-64.73985 -21.71358,-65.28537 0,-0.54551 2.89181,-0.99184 6.42625,-0.99184 7.77454,0 11.37303,-2.26405 10.73891,-6.75654 l -0.461,-3.26596 -21.93932,-0.66817 -21.93933,-0.66816 6.68975,-8.0342 c 18.96324,-22.7743 43.72306,-37.5077 71.93356,-42.80428 14.49908,-2.72223 39.4134,-2.04835 52.78515,1.42772 11.96573,3.11056 31.8589,12.64708 42.161,20.21141 l 8.58507,6.3036 -4.99396,1.70367 c -6.2974,2.14834 -13.068,9.40762 -14.87366,15.94722 -2.01359,7.29264 0.17717,15.25811 7.98758,29.04226 10.60054,18.70829 12.31607,23.90532 12.43607,37.67391 0.0982,11.26319 -0.52806,14.12553 -9.8606,45.07056 -5.48097,18.17395 -10.42532,32.58364 -10.98742,32.02154 -1.0197,-1.0197 -42.48108,-124.13766 -42.48108,-126.14593 0,-0.58226 2.36626,-1.05865 5.25834,-1.05865 8.56847,0 12.36538,-2.03088 11.86862,-6.34823 l -0.42279,-3.67427 h -37.41733 c -36.41252,0 -37.4265,0.0718 -37.75906,2.67266 -0.58406,4.56784 1.7562,6.3031 9.67766,7.17584 l 7.64398,0.84216 9.43623,25.98957 9.43624,25.98956 -8.4427,25.45926 c -4.64348,14.00259 -10.60636,31.53536 -13.25085,38.96172 l -4.80816,13.50245 z"
           id="path6"
           transform="scale(0.26458333)" /><path
           style="fill:#ffffff;fill-opacity:1;stroke-width:57.5326"
           d="m 422.28121,352.94939 c 0,-0.73972 9.21922,-27.98816 20.48714,-60.55211 23.19565,-67.03469 23.54102,-68.21993 24.59242,-84.3966 0.86738,-13.34534 1.21501,-13.14619 6.91246,3.95994 14.2357,42.74154 3.06178,90.6736 -28.60619,122.71018 -10.78965,10.91523 -23.38583,20.76052 -23.38583,18.27859 z"
           id="path7"
           transform="scale(0.26458333)" /></g></g></g></svg>
